HIERARCHY
ROOT Hips
{
	OFFSET	0.00	0.00	0.00
	CHANNELS 6 Xposition Yposition Zposition Zrotation Xrotation Yrotation
	JOINT Chest
	{
		OFFSET	0.00	6.28	0.00
		CHANNELS 3 Zrotation Xrotation Yrotation
		JOINT Neck
		{
			OFFSET	0.00	14.30	0.00
			CHANNELS 3 Zrotation Xrotation Yrotation
			JOINT Head
			{
				OFFSET	0.00	2.64	0.00
				CHANNELS 3 Zrotation Xrotation Yrotation
				End Site
				{
					OFFSET	0.00	4.50	0.00
				}
			}
		}
		JOINT LeftCollar
		{
			OFFSET	1.12	11.36	1.87
			CHANNELS 3 Zrotation Xrotation Yrotation
			JOINT LeftUpArm
			{
				OFFSET	4.57	2.02	-1.82
				CHANNELS 3 Zrotation Xrotation Yrotation
				JOINT LeftLowArm
				{
					OFFSET	0.22	-10.35	-0.06
					CHANNELS 3 Zrotation Xrotation Yrotation
					JOINT LeftHand
					{
						OFFSET	0.09	-10.35	2.18
						CHANNELS 3 Zrotation Xrotation Yrotation
						End Site
						{
							OFFSET	0.13	-6.69	1.71
						}
					}
				}
			}
		}
		JOINT RightCollar
		{
			OFFSET	-1.12	11.36	1.87
			CHANNELS 3 Zrotation Xrotation Yrotation
			JOINT RightUpArm
			{
				OFFSET	-4.71	2.03	-1.82
				CHANNELS 3 Zrotation Xrotation Yrotation
				JOINT RightLowArm
				{
					OFFSET	-0.26	-10.43	-0.06
					CHANNELS 3 Zrotation Xrotation Yrotation
					JOINT RightHand
					{
						OFFSET	0.00	-10.26	2.18
						CHANNELS 3 Zrotation Xrotation Yrotation
						End Site
						{
							OFFSET	-0.14	-6.67	1.71
						}
					}
				}
			}
		}
	}
	JOINT LeftUpLeg
	{
		OFFSET	3.91	0.00	0.00
		CHANNELS 3 Zrotation Xrotation Yrotation
		JOINT LeftLowLeg
		{
			OFFSET	-0.44	-17.57	1.70
			CHANNELS 3 Zrotation Xrotation Yrotation
			JOINT LeftFoot
			{
				OFFSET	-0.04	-17.20	-1.48
				CHANNELS 3 Zrotation Xrotation Yrotation
				End Site
				{
					OFFSET	0.00	-3.93	5.23
				}
			}
		}
	}
	JOINT RightUpLeg
	{
		OFFSET	-3.91	0.00	0.00
		CHANNELS 3 Zrotation Xrotation Yrotation
		JOINT RightLowLeg
		{
			OFFSET	0.44	-17.62	1.70
			CHANNELS 3 Zrotation Xrotation Yrotation
			JOINT RightFoot
			{
				OFFSET	0.00	-17.14	-1.48
				CHANNELS 3 Zrotation Xrotation Yrotation
				End Site
				{
					OFFSET	0.00	-4.04	5.23
				}
			}
		}
	}
}
MOTION
Frames: 33
Frame Time: 0.04
0.90	4.72	12.29	1.52	1.26	113.24	-2.32	-3.52	-2.37	4.96	14.39	-16.19	0.94	2.09	0.24	-5.06	1.98	-7.53	20.00	-5.93	-46.51	-6.51	1.20	5.01	-2.71	2.48	-0.57	10.69	-4.15	2.79	-15.33	1.26	38.21	-2.87	5.52	1.15	15.45	2.84	3.28	1.77	-2.60	1.23	-3.18	17.47	-6.22	1.22	-12.40	-0.00	-1.51	0.95	-22.99	3.81	15.19	11.87	-5.83	-9.92	4.62	
0.92	4.72	12.28	1.43	1.21	113.40	-2.23	-3.66	-2.56	4.81	14.41	-16.17	0.97	2.06	0.25	-4.99	1.60	-7.61	19.76	-5.51	-46.43	-6.48	1.25	4.98	-2.77	2.48	-0.59	10.42	-4.31	2.92	-15.14	1.47	38.39	-2.82	5.48	1.14	15.46	2.84	3.28	1.78	-2.70	1.06	-3.17	17.53	-6.19	1.20	-12.44	-0.00	-1.50	0.91	-23.13	3.81	15.21	11.88	-5.85	-9.96	4.61	
0.96	4.72	12.27	1.43	1.21	113.40	-2.19	-3.74	-2.58	4.75	14.49	-16.09	0.98	2.05	0.25	-5.05	1.51	-7.66	19.80	-5.23	-48.28	-6.13	1.15	4.92	-2.60	2.48	-0.55	10.41	-4.28	3.02	-15.17	1.53	38.49	-2.79	5.45	1.15	15.39	2.84	3.26	1.74	-2.68	1.30	-3.28	17.39	-6.69	1.32	-12.31	0.01	-1.48	0.97	-23.10	3.81	15.18	11.87	-5.84	-9.97	4.61	
0.94	4.71	12.27	1.16	1.07	113.99	-1.96	-3.72	-3.25	4.50	14.21	-15.90	0.93	2.03	0.24	-5.61	2.29	-7.09	20.26	-6.37	-47.91	-6.28	1.18	4.80	-2.65	2.48	-0.56	10.59	-3.41	2.75	-15.66	0.34	38.36	-2.76	5.53	1.03	15.20	2.83	3.22	1.68	-3.23	0.57	-3.25	17.65	-6.52	1.27	-12.34	0.00	-1.51	0.66	-23.78	3.83	15.33	11.96	-5.84	-10.05	4.60	
0.97	4.71	12.26	1.24	1.11	114.00	-1.94	-3.56	-3.26	4.45	14.11	-15.85	0.96	2.07	0.25	-5.75	2.56	-6.91	20.39	-6.75	-47.90	-6.31	1.16	4.84	-2.69	2.48	-0.57	10.68	-3.17	2.66	-15.80	0.01	38.72	-2.76	5.53	1.03	15.15	2.82	3.21	1.72	-3.02	0.34	-3.14	17.69	-6.05	1.19	-12.50	-0.00	-1.48	0.86	-23.83	3.83	15.20	12.01	-5.87	-10.02	4.61	
1.00	4.71	12.25	1.22	1.11	114.01	-1.90	-3.59	-3.31	4.38	14.12	-15.80	0.95	2.13	0.24	-5.84	2.58	-6.88	20.41	-6.73	-47.90	-6.27	1.16	4.82	-2.71	2.48	-0.57	10.68	-3.05	2.70	-15.80	-0.16	38.66	-2.81	5.47	1.15	15.47	2.84	3.28	1.68	-2.98	0.56	-3.24	17.50	-6.51	1.28	-12.36	0.00	-1.47	0.93	-23.90	3.83	15.14	12.06	-5.89	-10.03	4.60	
1.04	4.72	12.24	1.22	1.12	114.02	-1.88	-3.61	-3.33	4.31	14.17	-15.78	0.96	2.18	0.25	-5.89	2.52	-6.86	20.38	-6.69	-47.71	-6.32	1.16	4.85	-2.95	2.48	-0.63	10.63	-3.02	2.73	-15.86	-0.10	38.61	-2.68	5.50	0.99	15.04	2.82	3.19	1.70	-2.91	0.59	-3.26	17.46	-6.57	1.30	-12.37	0.01	-1.45	1.01	-23.88	3.83	15.09	12.04	-5.88	-10.04	4.60	
1.07	4.72	12.24	1.32	1.16	113.99	-1.91	-3.38	-3.18	4.39	14.06	-15.89	0.95	2.20	0.24	-5.99	2.90	-6.75	20.59	-7.24	-47.59	-6.41	1.15	4.92	-2.96	2.48	-0.63	10.81	-2.82	2.54	-15.96	-0.51	38.69	-2.82	5.49	1.13	15.45	2.84	3.28	1.76	-2.68	0.36	-3.15	17.52	-6.11	1.14	-12.56	-0.01	-1.41	1.18	-23.78	3.81	15.01	11.97	-5.88	-10.03	4.60	
1.10	4.72	12.24	1.40	1.19	113.93	-1.91	-3.21	-3.14	4.37	14.00	-15.91	0.95	2.27	0.24	-6.09	3.17	-6.62	20.75	-7.61	-47.36	-6.44	1.14	4.97	-2.80	2.48	-0.59	10.94	-2.63	2.50	-16.16	-0.70	38.80	-2.68	5.49	1.00	15.02	2.82	3.19	1.79	-2.50	0.42	-3.15	17.44	-6.13	1.11	-12.57	-0.01	-1.36	1.33	-23.68	3.80	14.93	11.94	-5.94	-10.00	4.60	
1.13	4.73	12.23	1.41	1.20	113.93	-1.92	-3.18	-3.16	4.37	14.05	-15.89	0.95	2.35	0.24	-6.11	3.18	-6.64	20.76	-7.64	-47.22	-6.45	1.16	4.96	-2.86	2.48	-0.61	10.97	-2.60	2.53	-16.15	-0.80	38.84	-2.78	5.46	1.14	15.40	2.84	3.27	1.74	-2.45	0.64	-3.25	17.26	-6.58	1.24	-12.38	0.00	-1.32	1.43	-23.70	3.79	14.85	11.93	-6.03	-9.97	4.60	
1.15	4.72	12.23	1.08	1.06	114.06	-1.90	-3.70	-3.30	4.33	14.28	-15.93	0.96	2.48	0.24	-5.97	2.72	-6.86	20.48	-7.03	-47.03	-6.42	1.19	4.95	-2.94	2.48	-0.63	10.74	-2.89	2.72	-15.96	-0.30	38.73	-2.78	5.46	1.13	15.43	2.84	3.27	1.72	-2.85	0.49	-3.25	17.36	-6.55	1.22	-12.44	-0.00	-1.35	1.08	-23.88	3.81	14.93	11.98	-6.09	-10.03	4.59	
1.22	4.73	12.22	1.25	1.15	113.59	-2.01	-3.75	-2.80	4.44	14.58	-16.02	0.95	2.73	0.23	-5.62	2.11	-7.28	20.18	-6.14	-47.07	-6.44	1.18	4.96	-2.86	2.48	-0.61	10.58	-3.49	2.98	-15.68	0.68	38.79	-2.66	5.48	1.00	15.09	2.82	3.20	1.84	-2.29	0.85	-3.17	17.21	-6.24	1.14	-12.63	-0.01	-1.29	1.41	-23.45	3.80	14.74	12.00	-6.19	-9.95	4.59	
1.25	4.73	12.21	1.20	1.13	113.62	-2.04	-3.78	-2.79	4.52	14.65	-16.10	0.88	2.94	0.21	-5.54	2.07	-7.33	20.18	-6.07	-48.68	-6.22	1.00	5.00	-2.57	2.47	-0.55	10.56	-3.56	2.99	-15.61	0.76	38.63	-2.69	5.51	1.01	15.17	2.83	3.22	1.85	-2.30	0.79	-3.16	17.21	-6.19	1.13	-12.64	-0.01	-1.27	1.41	-23.56	3.80	14.71	12.05	-6.28	-9.93	4.59	
1.28	4.73	12.21	1.19	1.12	113.60	-2.11	-3.73	-2.73	4.63	14.65	-16.21	0.74	3.15	0.18	-5.62	2.37	-7.24	20.40	-6.46	-48.78	-6.23	0.99	5.01	-2.54	2.47	-0.54	10.76	-3.41	2.89	-15.70	0.49	38.78	-2.73	5.44	1.10	15.43	2.84	3.27	1.82	-2.28	1.09	-3.27	17.02	-6.70	1.22	-12.46	-0.00	-1.24	1.46	-23.52	3.80	14.65	12.05	-6.28	-9.89	4.59	
1.30	4.73	12.20	1.16	1.08	113.64	-2.03	-3.67	-2.82	4.53	14.67	-16.25	0.84	3.34	0.20	-5.78	2.58	-7.15	20.55	-6.73	-48.74	-6.21	1.02	4.99	-2.57	2.47	-0.55	10.84	-3.17	2.83	-15.90	0.22	38.87	-2.62	5.48	0.98	15.08	2.82	3.20	1.84	-2.29	1.02	-3.26	17.00	-6.67	1.19	-12.47	-0.00	-1.20	1.48	-23.58	3.80	14.59	12.08	-6.32	-9.85	4.59	
1.33	4.74	12.19	1.09	1.05	113.70	-1.91	-3.71	-3.03	4.33	14.75	-16.18	0.86	3.55	0.20	-5.90	2.51	-7.10	20.56	-6.69	-48.60	-6.24	1.06	5.01	-2.79	2.48	-0.59	10.76	-2.99	2.94	-15.93	-0.01	39.08	-2.68	5.41	1.09	15.47	2.84	3.28	1.87	-2.30	0.65	-3.14	17.12	-6.12	1.04	-12.65	-0.02	-1.19	1.47	-23.55	3.80	14.55	12.07	-6.24	-9.91	4.59	
1.35	4.74	12.19	1.01	1.01	113.66	-1.85	-3.83	-3.12	4.21	14.90	-16.11	0.87	3.77	0.20	-5.91	2.28	-7.15	20.51	-6.41	-48.47	-6.27	1.07	5.04	-2.86	2.48	-0.61	10.60	-3.03	3.07	-15.84	0.08	39.28	-2.66	5.40	1.08	15.44	2.84	3.27	1.83	-2.34	0.93	-3.25	16.91	-6.61	1.17	-12.45	-0.01	-1.16	1.44	-23.59	3.80	14.47	12.09	-6.32	-9.80	4.60	
1.38	4.75	12.18	0.96	0.96	113.65	-1.84	-3.91	-3.16	4.23	15.03	-16.17	0.82	3.98	0.18	-5.80	2.08	-7.18	20.37	-6.21	-48.31	-6.31	1.14	5.07	-2.93	2.48	-0.62	10.46	-3.18	3.14	-15.71	0.26	39.30	-2.63	5.39	1.07	15.46	2.84	3.28	1.87	-2.34	0.93	-3.24	16.86	-6.60	1.14	-12.47	-0.01	-1.10	1.47	-23.49	3.79	14.36	12.07	-6.25	-9.83	4.60	
1.41	4.74	12.18	0.91	0.92	113.68	-1.88	-3.90	-3.14	4.33	15.06	-16.33	0.80	4.11	0.18	-5.89	2.39	-7.11	20.58	-6.60	-48.28	-6.35	1.13	5.10	-2.92	2.48	-0.62	10.64	-3.00	3.02	-15.88	0.06	39.13	-2.62	5.45	0.98	15.14	2.82	3.21	1.95	-2.30	0.63	-3.13	16.98	-6.09	0.97	-12.70	-0.03	-1.06	1.48	-23.53	3.79	14.32	12.10	-6.23	-9.83	4.60	
1.36	4.69	12.18	-1.06	0.18	114.45	-2.66	-6.22	-3.63	5.35	15.41	-16.85	0.48	4.10	0.11	-5.54	1.49	-7.21	20.58	-5.49	-48.61	-6.45	1.09	4.97	-2.84	2.48	-0.60	11.23	-4.80	2.98	-15.80	2.09	39.54	-2.74	5.41	1.13	15.43	2.84	3.27	1.73	-4.98	-0.16	-3.12	17.68	-5.94	0.96	-12.84	-0.02	-1.40	-0.96	-24.40	3.85	15.15	12.16	-6.35	-10.18	4.56	
1.38	4.70	12.18	-1.04	0.20	114.40	-1.94	-6.55	-4.05	4.10	15.96	-16.34	0.83	4.22	0.18	-5.45	0.56	-8.10	19.63	-3.99	-47.52	-6.47	1.10	4.99	-2.81	2.48	-0.60	9.85	-4.11	3.79	-15.24	1.94	39.07	-2.57	5.42	0.97	15.01	2.82	3.18	1.73	-4.86	-0.11	-3.11	17.59	-5.93	0.93	-12.79	-0.03	-1.39	-0.89	-24.35	3.86	15.09	12.18	-6.37	-10.11	4.56	
1.40	4.71	12.18	-1.03	0.25	114.40	-2.02	-6.36	-4.04	4.17	15.93	-16.40	0.76	4.35	0.17	-5.60	0.91	-7.96	19.87	-4.48	-47.65	-6.47	1.09	4.99	-2.86	2.48	-0.61	10.06	-3.87	3.70	-15.44	1.60	39.37	-2.56	5.41	0.96	14.98	2.81	3.18	1.69	-4.77	-0.14	-3.10	17.49	-5.89	0.90	-12.70	-0.03	-1.41	-0.83	-24.36	3.86	15.06	12.21	-6.42	-10.04	4.57	
1.42	4.71	12.18	-1.04	0.25	114.39	-2.12	-6.23	-4.05	4.27	15.97	-16.45	0.76	4.49	0.16	-5.56	1.05	-7.92	19.93	-4.71	-47.42	-6.48	1.10	4.99	-2.99	2.48	-0.63	10.18	-3.81	3.70	-15.47	1.42	39.53	-2.64	5.38	1.07	15.38	2.84	3.26	1.70	-4.73	-0.16	-3.09	17.43	-5.87	0.88	-12.63	-0.04	-1.39	-0.80	-24.29	3.84	15.02	12.13	-6.29	-10.02	4.58	
1.43	4.72	12.19	-1.06	0.19	114.36	-2.14	-6.13	-4.02	4.33	16.01	-16.50	0.84	4.62	0.18	-5.50	1.12	-7.90	19.99	-4.86	-47.92	-6.47	1.06	5.02	-2.90	2.48	-0.62	10.21	-3.80	3.71	-15.45	1.34	39.58	-2.63	5.37	1.07	15.43	2.84	3.27	1.77	-4.72	-0.14	-3.08	17.34	-5.84	0.73	-12.62	-0.06	-1.30	-0.80	-24.28	3.84	14.90	12.17	-6.35	-9.87	4.59	
1.44	4.74	12.20	-1.09	0.14	114.35	-2.09	-6.04	-4.00	4.31	16.06	-16.53	0.85	4.72	0.18	-5.45	1.04	-7.93	19.98	-4.79	-50.08	-6.12	0.93	4.98	-2.62	2.48	-0.56	10.12	-3.83	3.74	-15.36	1.33	39.70	-2.64	5.36	1.07	15.43	2.84	3.27	1.84	-4.71	-0.07	-3.08	17.24	-5.87	0.71	-12.53	-0.06	-1.22	-0.79	-24.34	3.85	14.76	12.25	-6.40	-9.69	4.61	
1.45	4.75	12.21	-1.08	0.12	114.34	-2.07	-5.86	-3.99	4.30	16.08	-16.55	0.85	4.80	0.18	-5.59	1.25	-7.83	20.13	-5.14	-50.19	-6.05	0.94	4.93	-2.61	2.48	-0.56	10.21	-3.63	3.68	-15.47	1.03	39.84	-2.63	5.34	1.08	15.39	2.84	3.26	1.88	-4.65	-0.05	-3.09	17.12	-5.91	0.70	-12.43	-0.06	-1.15	-0.72	-24.38	3.85	14.59	12.31	-6.42	-9.54	4.62	
1.45	4.76	12.22	-1.14	0.08	114.33	-2.06	-5.73	-4.01	4.28	16.12	-16.53	0.89	4.80	0.19	-5.70	1.44	-7.79	20.28	-5.42	-50.16	-6.02	0.91	4.91	-2.55	2.47	-0.54	10.30	-3.48	3.67	-15.57	0.79	39.88	-2.62	5.33	1.09	15.33	2.83	3.25	1.91	-4.70	-0.03	-3.09	17.04	-5.93	0.68	-12.35	-0.07	-1.10	-0.75	-24.41	3.84	14.46	12.34	-6.45	-9.43	4.63	
1.44	4.76	12.23	-1.32	0.01	114.35	-2.07	-5.77	-4.10	4.22	16.22	-16.48	0.90	4.85	0.19	-5.63	1.24	-7.87	20.17	-5.27	-50.20	-6.03	0.87	4.91	-2.46	2.47	-0.52	10.20	-3.59	3.81	-15.46	0.90	39.85	-2.70	5.35	1.12	15.34	2.83	3.25	1.91	-4.90	-0.04	-3.09	16.99	-5.93	0.67	-12.28	-0.07	-1.10	-0.97	-24.49	3.85	14.45	12.38	-6.54	-9.34	4.64	
1.42	4.77	12.24	-1.52	-0.07	114.39	-2.10	-5.86	-4.09	4.27	16.36	-16.55	0.85	4.94	0.18	-5.67	1.24	-7.98	20.23	-5.30	-50.27	-6.14	0.74	4.92	-2.23	2.47	-0.47	10.31	-3.56	3.83	-15.57	0.89	40.07	-2.70	5.34	1.13	15.31	2.83	3.25	1.90	-5.14	-0.06	-3.08	16.96	-5.93	0.66	-12.22	-0.07	-1.11	-1.20	-24.57	3.86	14.44	12.44	-6.55	-9.27	4.65	
1.41	4.77	12.26	-1.55	-0.09	114.40	-2.15	-5.66	-3.96	4.39	16.40	-16.71	0.77	5.05	0.16	-5.89	1.75	-7.93	20.61	-5.96	-50.47	-6.12	0.68	4.92	-2.28	2.47	-0.48	10.61	-3.25	3.62	-15.84	0.43	40.11	-2.68	5.33	1.12	15.33	2.83	3.25	1.93	-5.18	-0.04	-3.09	16.90	-5.96	0.64	-12.14	-0.07	-1.08	-1.23	-24.66	3.87	14.36	12.51	-6.56	-9.17	4.66	
1.38	4.78	12.28	-1.53	-0.12	114.35	-2.28	-5.31	-3.67	4.71	16.34	-17.02	0.65	5.36	0.13	-6.41	3.24	-7.60	21.64	-7.72	-50.72	-6.21	0.62	5.00	-2.28	2.47	-0.48	11.38	-2.37	3.11	-16.54	-0.72	40.05	-2.59	5.37	0.99	15.09	2.82	3.20	2.00	-5.19	0.11	-3.10	16.84	-6.03	0.66	-12.05	-0.07	-1.01	-1.22	-24.68	3.87	14.22	12.58	-6.62	-9.01	4.67	
1.40	4.81	12.28	-1.97	-0.34	114.32	-2.64	-6.30	-3.21	5.33	16.90	-17.81	0.32	8.23	0.05	-7.74	6.02	-7.41	24.00	-10.00	-51.21	-6.64	0.45	5.35	-2.34	2.47	-0.50	13.16	-0.40	2.59	-18.16	-2.22	39.70	-2.40	5.31	0.91	15.03	2.82	3.19	2.04	-5.47	0.18	-3.09	16.46	-6.07	0.67	-11.88	-0.07	-0.85	-1.40	-24.77	3.85	13.61	12.67	-6.52	-8.78	4.70	
1.55	4.88	12.26	-2.53	-0.62	114.41	-3.33	-9.44	-2.91	6.20	19.05	-18.75	-0.91	16.20	-0.00	-8.50	7.41	-7.40	25.82	-10.31	-51.60	-8.31	0.48	6.50	-3.37	2.48	-0.72	14.31	0.79	2.80	-19.24	-1.34	39.19	-1.33	4.99	0.41	14.75	2.80	3.13	2.11	-5.30	0.07	-3.04	15.27	-6.09	0.48	-11.52	-0.10	-0.43	-1.11	-24.90	3.78	12.06	12.63	-6.22	-8.28	4.77	
